
<?xml version="1.0" standalone="no"?>
<!DOCTYPE svg PUBLIC "-//W3C//DTD SVG 20010904//EN"
 "http://www.w3.org/TR/2001/REC-SVG-20010904/DTD/svg10.dtd">
<svg version="1.0" xmlns="http://www.w3.org/2000/svg"
 width="1611.000000pt" height="1228.000000pt" viewBox="0 0 1611.000000 1228.000000"
 preserveAspectRatio="xMidYMid meet">
<metadata>
Created by potrace 1.15, written by Peter Selinger 2001-2017
</metadata>
<g transform="translate(0.000000,1228.000000) scale(0.100000,-0.100000)"
fill="#000000" stroke="none">
<path d="M0 6090 l0 -6090 4019 0 c2211 0 4027 3 4035 6 11 4 13 10 7 18 -6 7
-4 16 5 24 8 7 14 8 14 2 0 -27 17 -5 26 33 6 29 16 45 32 52 16 7 24 22 29
49 3 22 16 47 29 59 14 12 26 36 30 63 4 27 11 44 20 44 7 0 16 11 20 24 3 14
12 27 20 30 9 3 14 20 14 46 0 29 4 40 15 40 9 0 15 9 15 24 0 13 6 27 12 29
10 4 10 6 1 6 -18 1 -16 31 2 31 10 0 15 11 15 35 0 24 5 35 15 35 9 0 15 9
15 23 0 38 -12 67 -26 67 -8 0 -14 7 -14 15 0 34 -61 -2 -75 -44 -3 -11 -16
-23 -28 -27 -12 -4 -27 -14 -34 -23 -7 -9 -13 -12 -13 -7 0 4 -8 -1 -17 -12
-14 -16 -23 -18 -40 -12 -23 9 -30 43 -25 105 1 11 2 38 3 60 1 76 28 272 49
361 12 49 30 130 42 179 11 50 31 122 43 160 12 39 32 113 44 165 12 52 27
113 33 135 6 22 12 47 13 55 1 8 4 22 7 30 22 65 30 96 38 137 15 79 41 206
50 243 5 19 16 80 25 135 10 55 31 154 47 220 30 121 33 142 62 385 27 222 60
434 110 700 8 41 19 122 25 180 26 254 43 410 52 470 6 36 14 101 19 145 6 44
14 98 19 120 22 96 48 377 57 620 10 263 -12 420 -90 665 -13 41 -34 118 -46
170 -12 52 -35 149 -51 215 -15 66 -31 138 -34 160 -4 22 -10 49 -15 60 -15
37 -31 123 -73 380 -38 229 -47 313 -57 532 -9 206 -25 303 -61 374 -10 20
-16 39 -13 42 4 3 -1 25 -9 49 -8 24 -22 70 -32 103 -9 33 -23 74 -30 90 -7
17 -21 55 -30 85 -10 30 -23 69 -30 85 -7 17 -18 48 -23 70 -6 22 -18 67 -27
100 -10 33 -21 76 -26 95 -4 19 -13 53 -18 75 -14 51 -41 267 -35 277 3 5 0 8
-5 8 -7 0 -9 41 -7 123 5 159 19 233 47 263 26 28 39 31 39 8 0 -8 16 -48 35
-88 19 -40 35 -78 35 -84 0 -6 16 -50 35 -98 19 -47 35 -95 35 -105 0 -10 9
-38 19 -61 10 -24 24 -65 30 -93 7 -27 18 -63 26 -80 7 -16 18 -43 24 -60 10
-28 11 -27 6 15 -2 25 -9 104 -15 175 -6 72 -16 148 -21 170 -6 22 -12 60 -14
83 -2 24 -9 49 -14 56 -6 7 -13 37 -16 65 -3 29 -12 62 -20 74 -8 12 -15 36
-15 53 0 19 -6 34 -15 38 -11 4 -15 21 -15 61 0 30 -4 55 -8 55 -10 0 -42 93
-42 122 0 11 -7 41 -15 67 -17 52 -45 188 -75 361 -7 36 -16 69 -21 75 -5 5
-9 19 -9 32 0 12 -9 37 -20 55 -11 18 -20 41 -20 51 0 19 -49 122 -97 202 -16
28 -42 75 -57 105 -54 111 -96 173 -169 252 -29 31 -41 38 -49 30 -7 -7 -33
-12 -58 -12 -43 0 -49 4 -106 63 -92 95 -111 130 -113 207 -1 36 -6 90 -12
120 -11 57 -54 178 -70 195 -5 5 -9 19 -9 31 0 12 -13 38 -29 58 -17 21 -31
54 -35 81 -4 25 -11 45 -16 45 -4 0 -11 18 -15 39 -4 22 -13 45 -21 52 -20 17
-20 152 1 169 8 7 15 29 15 49 1 34 2 35 15 17 13 -17 15 -18 15 -3 0 18 40
33 63 24 14 -5 27 -95 27 -189 0 -129 90 -368 144 -382 28 -7 51 9 67 46 7 18
19 39 25 46 15 14 50 16 59 2 3 -5 18 -10 33 -10 15 0 36 -7 46 -15 11 -8 27
-15 37 -15 9 0 22 -6 28 -14 7 -8 34 -17 61 -21 40 -5 49 -11 52 -28 2 -16 10
-22 28 -21 14 1 32 -7 41 -17 9 -11 26 -19 38 -19 12 0 24 -7 27 -15 4 -8 12
-15 20 -15 8 0 14 7 14 15 0 8 7 15 15 15 8 0 15 -7 15 -15 0 -9 9 -15 25 -15
31 0 32 12 3 25 -16 7 -23 19 -23 38 0 15 -5 31 -11 35 -6 4 -14 17 -18 30 -4
12 -12 22 -17 22 -5 0 -9 7 -9 15 0 16 -3 23 -43 101 -29 56 -37 138 -15 147
10 4 9 8 -2 16 -13 9 -12 12 5 17 12 3 28 23 38 45 10 22 22 37 27 34 18 -11
10 14 -12 39 -13 13 -35 38 -51 55 -15 16 -27 33 -27 38 -1 8 -47 44 -123 95
-55 38 -133 52 -237 43 -158 -13 -193 -14 -211 -4 -15 7 -19 6 -19 -6 0 -8 -4
-15 -10 -15 -5 0 -10 9 -10 20 0 11 -7 23 -15 27 -12 4 -15 17 -13 52 l3 46
-3692 3 -3693 2 0 -6090z m5195 2412 c117 -61 242 -199 367 -408 141 -234 196
-396 184 -544 -5 -75 -47 -252 -83 -357 -14 -40 -51 -117 -83 -170 l-59 -98
19 -85 c10 -47 23 -112 29 -145 6 -33 15 -82 21 -108 32 -159 30 -446 -6 -662
-63 -378 -205 -818 -343 -1060 -64 -114 -62 -107 -46 -161 7 -27 21 -112 29
-189 9 -77 25 -186 36 -243 11 -57 27 -170 34 -250 8 -81 25 -187 37 -237 18
-78 21 -108 16 -225 -5 -116 -10 -148 -37 -229 -33 -100 -60 -158 -93 -203
-20 -27 -20 -29 -4 -88 9 -33 17 -82 17 -109 0 -28 9 -74 19 -103 11 -29 31
-102 45 -163 14 -60 35 -150 47 -198 22 -91 21 -105 -4 -195 -16 -54 -22 -67
-96 -207 -33 -62 -41 -87 -36 -110 3 -16 10 -61 15 -100 5 -38 17 -117 27
-175 11 -67 18 -156 18 -246 0 -161 -1 -163 -112 -282 -59 -62 -59 -63 -77
-43 -20 22 -35 76 -43 153 -5 44 -2 50 46 110 56 69 63 85 29 67 -13 -7 -37
-13 -54 -15 -26 -2 -37 5 -66 39 -45 55 -66 98 -73 155 -4 26 -13 61 -21 79
-21 46 -5 64 90 104 103 43 146 80 146 123 0 18 -4 36 -9 42 -4 5 -21 43 -35
84 -15 41 -32 84 -37 95 -5 11 -18 55 -29 97 -10 43 -23 86 -28 95 -5 10 -15
47 -21 83 -7 35 -23 85 -36 110 -13 25 -27 64 -30 86 -4 21 -13 46 -20 54 -31
36 -55 94 -57 135 -2 56 16 76 115 135 124 73 137 86 137 130 0 22 -6 59 -14
82 -8 24 -19 68 -25 98 -6 30 -27 91 -47 135 -19 44 -37 100 -40 125 -3 25
-12 59 -19 75 -7 17 -18 57 -25 90 -6 33 -18 78 -26 100 -8 22 -16 56 -19 75
-15 106 -29 161 -52 213 -25 55 -26 61 -15 136 11 76 9 105 -8 146 -5 11 -16
55 -25 97 -18 88 -34 123 -71 163 -20 22 -27 41 -31 97 -3 38 -10 71 -14 74
-5 3 -9 18 -9 34 0 16 -7 46 -16 67 -9 21 -23 52 -29 68 -42 100 -59 135 -67
135 -4 0 -8 11 -8 24 0 14 -4 28 -10 31 -5 3 -10 14 -10 23 0 9 -13 23 -29 30
-16 7 -35 27 -42 45 -7 18 -19 38 -27 46 -9 10 -12 25 -7 49 5 25 2 39 -10 52
-9 10 -14 24 -10 30 4 6 -2 21 -12 33 -21 23 -53 102 -53 129 0 8 -7 21 -16
29 -12 10 -14 24 -9 72 7 54 5 59 -14 64 -24 6 -26 14 -10 30 8 8 8 17 -1 32
-8 15 -9 48 -4 103 5 60 4 79 -5 74 -15 -10 -14 5 4 30 8 12 11 25 7 29 -4 3
1 12 11 20 15 11 15 14 2 25 -8 7 -15 19 -15 26 0 8 -5 14 -11 14 -6 0 -8 9
-4 21 4 12 1 27 -7 37 -7 9 -15 40 -17 68 -2 44 1 54 28 83 17 18 31 37 31 42
0 5 4 8 9 7 12 -4 101 35 101 45 0 10 44 9 73 -2 27 -11 28 -11 131 -111 l77
-75 -29 83 -30 84 23 25 22 26 31 -32 c17 -18 45 -54 64 -81 35 -52 58 -69 58
-45 0 16 56 21 76 7 12 -8 39 -56 48 -85 3 -10 10 -16 15 -13 11 7 26 -11 38
-49 7 -19 16 -29 26 -27 19 3 67 -84 70 -129 1 -20 6 -28 15 -24 8 3 18 5 23
5 25 0 2 148 -28 178 -7 7 -14 21 -15 30 -3 42 -8 70 -16 112 -45 212 -39 269
25 291 21 6 46 23 58 37 11 14 39 46 63 71 48 51 99 143 103 187 2 16 7 34 12
41 5 7 -2 13 -24 18 -29 7 -31 9 -16 20 18 13 23 35 8 35 -36 0 -58 157 -41
291 4 36 4 68 -1 74 -5 5 -9 14 -9 21 0 17 73 104 88 104 20 0 14 47 -13 86
-14 20 -25 42 -25 48 0 6 -10 16 -22 21 -13 6 -23 17 -23 25 -1 31 -28 63 -71
81 -24 11 -44 24 -44 28 0 5 -15 12 -33 15 -49 9 -68 59 -66 171 1 65 5 88 16
92 21 8 10 173 -12 185 -8 5 -15 17 -15 27 0 10 -9 29 -19 43 -17 21 -39 117
-33 141 1 4 -3 7 -9 7 -6 0 -9 14 -7 33 3 32 3 32 68 37 80 6 123 -1 175 -28z
m-1889 -1587 c214 -37 340 -102 538 -279 46 -40 66 -66 66 -82 0 -29 -271
-303 -325 -329 -51 -24 -90 -25 -90 -2 0 24 -99 102 -103 82 -2 -8 -11 -15
-20 -15 -26 1 -50 24 -67 64 -9 21 -29 45 -45 54 -16 9 -37 32 -47 52 -31 58
-97 59 -287 4 -26 -8 -55 -14 -62 -14 -18 0 -180 -63 -243 -94 -164 -82 -230
-117 -236 -126 -4 -6 -24 -22 -45 -35 -74 -47 -226 -180 -372 -327 -82 -81
-148 -152 -148 -157 0 -5 -18 -31 -40 -57 -98 -118 -206 -414 -216 -587 -2
-44 -7 -83 -10 -88 -9 -16 -24 -10 -24 10 0 10 -6 34 -14 52 -17 41 -23 603
-7 623 5 6 11 38 12 69 1 32 6 60 11 63 4 3 8 13 8 23 0 50 81 191 180 311 99
121 267 269 394 347 16 10 48 35 72 55 24 20 53 39 64 43 11 3 20 10 20 14 0
5 14 14 30 21 17 7 30 16 30 19 0 4 15 15 33 24 17 10 50 28 72 42 22 14 58
33 80 42 22 10 63 30 90 45 237 134 455 175 701 133z m-731 -3092 c71 -17 101
-43 163 -138 24 -38 55 -83 68 -98 27 -32 32 -82 10 -90 -20 -8 -102 22 -161
59 -28 17 -71 42 -97 54 -120 59 -236 192 -190 220 24 14 137 10 207 -7z"/>
<path d="M9493 12168 c-6 -7 -13 -20 -17 -28 -3 -8 -14 -27 -24 -42 -9 -14
-34 -56 -55 -92 -21 -36 -42 -66 -47 -66 -6 0 -10 -6 -10 -14 0 -7 -12 -31
-26 -52 -15 -21 -27 -44 -28 -50 -2 -13 -47 -73 -86 -117 -14 -15 -34 -39 -45
-54 -11 -14 -29 -36 -41 -48 -11 -12 -18 -27 -17 -32 2 -6 -7 -13 -20 -17 -19
-4 -26 -14 -31 -45 -3 -22 -2 -51 4 -65 5 -14 10 -65 12 -112 2 -78 5 -92 34
-140 18 -30 38 -60 46 -68 7 -7 30 -41 50 -75 36 -58 39 -60 70 -54 41 8 80
28 144 75 81 59 125 73 241 73 97 0 102 -1 127 -27 28 -31 42 -33 113 -18 38
9 62 24 117 75 38 36 73 65 78 65 12 0 148 110 148 120 0 4 14 25 31 46 17 22
36 51 41 66 5 15 15 26 21 25 6 -1 13 7 15 17 2 10 13 28 23 40 11 11 23 32
26 46 3 14 16 47 29 73 12 26 26 62 30 80 13 62 54 99 68 62 3 -8 11 -15 19
-15 7 0 13 -8 14 -17 1 -10 5 -54 9 -98 5 -67 4 -84 -9 -97 -39 -38 -69 -167
-48 -206 8 -15 8 -23 0 -27 -7 -5 -5 -11 4 -18 9 -8 17 -39 20 -82 5 -63 33
-165 50 -182 4 -3 7 -14 7 -24 0 -9 6 -19 13 -22 7 -3 22 -30 32 -61 11 -31
23 -56 27 -56 4 0 8 -6 8 -12 1 -12 40 -96 68 -143 43 -74 93 -243 117 -400 4
-22 21 -71 39 -110 76 -160 87 -226 79 -466 l-6 -184 58 -134 c33 -77 63 -167
71 -210 23 -124 52 -271 69 -349 18 -84 21 -205 12 -477 -7 -199 4 -292 53
-455 22 -74 6 -349 -40 -675 -66 -471 -76 -622 -90 -1420 -6 -357 -15 -612
-25 -705 -17 -165 -20 -296 -11 -455 6 -85 4 -122 -8 -165 -68 -240 -92 -517
-82 -940 7 -302 15 -435 41 -645 61 -509 73 -671 116 -1550 13 -263 6 -814
-12 -999 -28 -296 -38 -382 -44 -398 -7 -17 117 -18 2519 -18 l2526 0 0 6090
0 6090 -2450 0 c-1347 0 -2450 -2 -2450 -4 0 -2 11 -28 25 -58 14 -29 25 -60
25 -68 0 -8 6 -27 14 -41 7 -14 16 -46 20 -70 4 -25 18 -67 31 -94 14 -26 25
-61 25 -76 0 -15 5 -31 11 -35 14 -8 5 -111 -16 -194 -7 -30 -28 -113 -46
-185 -17 -71 -38 -137 -45 -146 -8 -9 -12 -18 -9 -21 3 -3 1 -18 -6 -34 -6
-16 -16 -40 -21 -54 -6 -14 -14 -33 -19 -42 -5 -10 -9 -29 -9 -42 0 -14 -7
-29 -16 -34 -9 -5 -15 -15 -12 -22 2 -8 -6 -41 -18 -74 -25 -71 -46 -86 -121
-86 -64 0 -87 19 -97 78 -3 23 -12 45 -19 49 -6 4 -18 17 -25 28 -34 55 -39
88 -34 233 2 58 5 72 18 72 8 0 13 4 9 9 -6 10 24 82 39 92 4 4 11 28 13 54 3
26 12 49 19 52 8 3 14 11 14 19 0 7 10 19 22 25 13 7 29 18 36 25 7 8 30 19
51 25 21 6 41 20 47 33 6 14 16 20 32 18 15 -2 22 2 22 12 0 9 5 16 11 16 8 0
8 4 0 14 -9 11 -9 19 1 37 10 17 10 23 1 26 -19 7 -15 33 5 33 15 1 15 2 1 13
-9 7 -19 25 -23 40 -7 30 -59 59 -204 112 -40 15 -86 38 -101 51 -16 13 -34
24 -40 24 -16 0 -61 41 -61 56 0 6 -7 14 -15 18 -9 3 -12 12 -8 22 3 9 0 20
-8 25 -12 8 -11 11 4 20 18 10 18 12 1 30 -16 18 -39 19 -624 19 -474 0 -610
-3 -617 -12z"/>
<path d="M8731 11209 c-7 -16 -11 -35 -9 -41 4 -12 -14 -38 -26 -38 -2 0 -6 8
-8 18 -3 9 -8 -11 -12 -45 -10 -77 -2 -116 26 -128 13 -6 25 -21 29 -35 10
-39 -2 -173 -17 -191 -8 -8 -14 -20 -14 -26 0 -6 -18 -25 -41 -41 -49 -36 -79
-89 -79 -137 0 -35 53 -155 68 -155 4 0 18 -20 30 -44 22 -46 27 -53 96 -135
21 -25 45 -60 52 -78 8 -17 18 -34 24 -38 5 -3 10 -14 10 -24 0 -33 67 -141
88 -141 17 0 15 78 -3 114 -8 15 -15 33 -15 39 0 6 -12 49 -26 95 -23 73 -26
97 -22 171 5 81 36 221 60 265 20 38 59 188 53 206 -3 11 -28 38 -56 61 -54
45 -71 76 -89 163 -6 31 -16 56 -21 56 -5 0 -9 7 -9 15 0 8 5 15 10 15 16 0
12 27 -5 34 -8 3 -15 14 -15 24 0 15 -20 32 -60 48 -3 2 -12 -11 -19 -27z"/>
<path d="M8940 9910 c-12 -8 -13 -15 -2 -52 7 -24 12 -77 11 -118 -6 -175 -4
-225 13 -250 8 -14 18 -36 21 -50 8 -32 75 -174 121 -255 19 -33 49 -85 66
-115 76 -135 103 -170 117 -156 11 11 6 303 -6 368 -12 67 -41 130 -86 188
-54 71 -108 152 -127 190 -23 47 -85 210 -89 234 -5 23 -19 29 -39 16z"/>
<path d="M9242 8531 c-43 -21 -57 -36 -74 -71 -19 -42 -21 -62 -20 -287 1
-133 8 -311 16 -395 20 -204 34 -395 47 -613 9 -172 27 -353 49 -495 6 -36 19
-126 30 -200 28 -199 41 -219 58 -92 19 132 23 222 33 712 5 261 11 504 14
540 3 36 9 120 15 188 14 169 13 251 -5 400 -18 143 -27 202 -47 282 -12 48
-17 55 -38 56 -14 1 -49 -10 -78 -25z"/>
<path d="M9344 3315 c-8 -42 2 -171 18 -238 9 -37 17 -49 35 -54 13 -3 27 -2
31 2 10 10 3 161 -12 232 -12 57 -34 92 -58 93 -4 0 -10 -16 -14 -35z"/>
<path d="M9362 2406 c-22 -49 -32 -145 -30 -291 2 -83 -3 -213 -9 -290 -7 -77
-17 -189 -23 -250 -5 -60 -16 -146 -24 -190 -8 -44 -20 -136 -26 -205 -18
-196 -108 -580 -189 -802 -23 -64 -39 -253 -27 -331 l7 -47 160 0 159 0 0 53
c0 29 6 102 14 162 8 61 20 157 26 215 6 58 16 119 21 136 5 17 18 91 29 165
60 401 56 956 -7 1199 -23 87 -24 106 -18 228 6 108 4 145 -10 202 -18 73 -34
87 -53 46z"/>
</g>
</svg>
